<?xml version="1.0" encoding="UTF-8" standalone="no"?>
<svg width="600" height="400" viewBox="0 0 600 400" fill="none" xmlns="http://www.w3.org/2000/svg">
  <!-- Background Grid -->
  <rect width="600" height="400" fill="#f8f9fa" />
  <path d="M0 40H600M0 80H600M0 120H600M0 160H600M0 200H600M0 240H600M0 280H600M0 320H600M0 360H600M40 0V400M80 0V400M120 0V400M160 0V400M200 0V400M240 0V400M280 0V400M320 0V400M360 0V400M400 0V400M440 0V400M480 0V400M520 0V400M560 0V400" stroke="#e9ecef" stroke-width="1" />

  <!-- Laptop -->
  <rect x="150" y="180" width="300" height="180" rx="10" fill="#343a40" />
  <rect x="160" y="190" width="280" height="150" rx="5" fill="#4b6cb7" />
  <rect x="170" y="200" width="260" height="130" rx="2" fill="#ffffff" />
  
  <!-- Document with contact info -->
  <rect x="195" y="220" width="210" height="100" rx="2" fill="#f8f9fa" />
  
  <!-- Contact info elements -->
  <!-- Email -->
  <rect x="210" y="235" width="20" height="20" rx="10" fill="#4b6cb7" />
  <rect x="240" y="242" width="140" height="6" rx="3" fill="#4b6cb7" opacity="0.7" />
  
  <!-- Phone -->
  <rect x="210" y="265" width="20" height="20" rx="10" fill="#4b6cb7" />
  <rect x="240" y="272" width="120" height="6" rx="3" fill="#4b6cb7" opacity="0.7" />
  
  <!-- Social Media -->
  <rect x="210" y="295" width="20" height="20" rx="10" fill="#4b6cb7" />
  <rect x="240" y="302" width="100" height="6" rx="3" fill="#4b6cb7" opacity="0.7" />
  
  <!-- Floating elements -->
  <!-- Email icon -->
  <circle cx="100" cy="100" r="25" fill="#ff8a00" opacity="0.9" />
  <rect x="85" y="100" width="30" height="20" rx="2" fill="white" />
  <path d="M85 100L100 110L115 100" stroke="#343a40" stroke-width="2" />
  
  <!-- Phone icon -->
  <circle cx="480" cy="130" r="25" fill="#ff8a00" opacity="0.9" />
  <path d="M470 120C470 120 465 125 470 135C475 145 480 140 480 140L490 130C490 130 485 125 480 130C475 135 475 125 480 120C485 115 490 120 490 120" fill="white" />
  
  <!-- Social media icon -->
  <circle cx="150" cy="320" r="25" fill="#ff8a00" opacity="0.9" />
  <circle cx="150" cy="315" r="8" fill="white" />
  <path d="M135 330C135 325 140 320 150 320C160 320 165 325 165 330" fill="white" />
  
  <!-- Animated data circles -->
  <circle cx="450" cy="260" r="15" fill="#4b6cb7" opacity="0.2" />
  <circle cx="480" cy="300" r="20" fill="#4b6cb7" opacity="0.3" />
  <circle cx="520" cy="280" r="10" fill="#4b6cb7" opacity="0.4" />
  <circle cx="80" cy="200" r="18" fill="#4b6cb7" opacity="0.3" />
  <circle cx="50" cy="240" r="12" fill="#4b6cb7" opacity="0.2" />
  <circle cx="70" cy="270" r="8" fill="#4b6cb7" opacity="0.4" />
</svg> 